<svg width="27" height="24" viewBox="0 0 27 24" fill="none" xmlns="http://www.w3.org/2000/svg">
<g clip-path="url(#clip0_90_5691)">
<mask id="mask0_90_5691" style="mask-type:luminance" maskUnits="userSpaceOnUse" x="1" y="2" width="26" height="22">
<path d="M1.30054 2.1333H26.2V23.6H1.30054V2.1333Z" fill="white"/>
</mask>
<g mask="url(#mask0_90_5691)">
<path fill-rule="evenodd" clip-rule="evenodd" d="M18.6604 13.4546C17.8146 13.4546 17.1292 12.7703 17.1292 11.926C17.1292 11.0812 17.8146 10.3968 18.6604 10.3968C19.5057 10.3968 20.1917 11.0812 20.1917 11.926C20.1917 12.7703 19.5057 13.4546 18.6604 13.4546ZM13.5562 13.4546C12.7109 13.4546 12.025 12.7703 12.025 11.926C12.025 11.0812 12.7109 10.3968 13.5562 10.3968C14.4021 10.3968 15.0875 11.0812 15.0875 11.926C15.0875 12.7703 14.4021 13.4546 13.5562 13.4546ZM8.4526 13.4546C7.60676 13.4546 6.92135 12.7703 6.92135 11.926C6.92135 11.0812 7.60676 10.3968 8.4526 10.3968C9.29791 10.3968 9.98385 11.0812 9.98385 11.926C9.98385 12.7703 9.29791 13.4546 8.4526 13.4546ZM13.9573 2.23849C7.0927 2.1036 1.44218 6.32756 1.33697 11.6729C1.29999 13.5312 1.93905 15.2807 3.07603 16.7776H3.07551C5.03072 19.2859 2.89687 23.5979 2.89687 23.5979L9.19739 20.8885C10.5547 21.3166 12.0297 21.5661 13.5755 21.5968C20.4401 21.7317 26.0906 17.5078 26.1958 12.1625C26.3016 6.81662 20.8224 2.37391 13.9573 2.23849Z" fill="white"/>
</g>
</g>
<defs>
<clipPath id="clip0_90_5691">
<rect width="27" height="24" fill="white"/>
</clipPath>
</defs>
</svg>
