<svg width="42" height="41" viewBox="0 0 42 41" fill="none" xmlns="http://www.w3.org/2000/svg">
<path d="M15.9763 9.15571C16.8259 7.6616 18.1472 6.49819 19.7288 5.85144C21.3105 5.20469 23.0612 5.11194 24.7012 5.58802C26.3412 6.06411 27.7758 7.08153 28.7756 8.47766C29.7755 9.87379 30.2828 11.568 30.2166 13.2895C30.1504 15.0111 29.5144 16.6605 28.4103 17.9741C27.3063 19.2878 25.7979 20.1898 24.1262 20.536C22.4546 20.8823 20.7162 20.6527 19.189 19.8841C17.6618 19.1155 16.4339 17.8521 15.7017 16.296C15.2124 16.6573 14.6217 16.8516 14.0156 16.8506H13.0619V17.3416C13.0619 17.7075 13.1992 18.0406 13.4243 18.2929C13.6166 18.0734 13.8706 17.9182 14.1525 17.8481C14.4343 17.778 14.7306 17.7962 15.002 17.9003C15.2733 18.0044 15.5068 18.1896 15.6713 18.431C15.8358 18.6725 15.9236 18.9588 15.9229 19.2518C15.9228 19.4531 15.881 19.6521 15.8002 19.8361C15.7194 20.0201 15.6014 20.185 15.4538 20.3203C15.3061 20.4555 15.1321 20.5581 14.9429 20.6215C14.7537 20.6849 14.5535 20.7077 14.3551 20.6884C13.496 20.6579 12.6822 20.292 12.0852 19.6677C11.4881 19.0433 11.1545 18.2094 11.1545 17.3416V10.1166C11.1545 9.86124 11.255 9.61635 11.4338 9.43578C11.6127 9.25522 11.8553 9.15378 12.1082 9.15378H15.9229L15.9763 9.15571ZM16.8766 13.2207C16.936 14.7318 17.58 16.1591 18.6702 17.1962C19.7605 18.2333 21.21 18.7974 22.7077 18.7674C24.2053 18.7374 25.6316 18.1157 26.6802 17.0358C27.7288 15.9559 28.3162 14.5039 28.3162 12.9916C28.3162 11.4793 27.7288 10.0273 26.6802 8.9474C25.6316 7.8675 24.2053 7.2458 22.7077 7.2158C21.21 7.1858 19.7605 7.74989 18.6702 8.78695C17.58 9.82401 16.936 11.2513 16.8766 12.7624V13.2207ZM14.9692 12.7258V11.0794H13.0619V14.9249H14.0156C14.2685 14.9249 14.5111 14.8235 14.6899 14.6429C14.8688 14.4624 14.9692 14.2175 14.9692 13.9621V13.2573C14.9633 13.0802 14.9633 12.9029 14.9692 12.7258ZM9.24335 26.471C9.24335 24.3278 10.9657 22.6198 13.0752 22.6198H32.1316C33.1434 22.6198 34.1136 23.0255 34.829 23.7478C35.5444 24.47 35.9463 25.4496 35.9463 26.471C35.9463 29.7273 34.3575 32.1825 31.8741 33.7827C29.4289 35.3559 26.133 36.0992 22.5948 36.0992C19.0567 36.0992 15.7608 35.3559 13.3156 33.7827C10.8322 32.1844 9.24335 29.7254 9.24335 26.471ZM13.0752 24.5454C12.0052 24.5454 11.1507 25.4062 11.1507 26.471C11.1507 28.9917 12.3371 30.8692 14.3417 32.1575C16.3826 33.4727 19.2856 34.1736 22.5948 34.1736C25.9041 34.1736 28.8071 33.4727 30.848 32.1575C32.8507 30.8673 34.039 28.9936 34.039 26.471C34.039 25.9603 33.838 25.4705 33.4803 25.1094C33.1226 24.7483 32.6375 24.5454 32.1316 24.5454H13.0752Z" fill="black"/>
</svg>
