<svg width="42" height="41" viewBox="0 0 42 41" fill="none" xmlns="http://www.w3.org/2000/svg">
<path d="M24.4257 8.52665H24.9392V8.01313C24.9392 6.92461 24.5095 5.88003 23.7436 5.10936C22.9776 4.33858 21.938 3.90498 20.8533 3.90498C19.7687 3.90498 18.7291 4.33858 17.9631 5.10936C17.1972 5.88003 16.7675 6.92461 16.7675 8.01313V8.52665H17.281H24.4257ZM15.1377 8.52665H15.6512V8.01313C15.6512 6.62293 16.2 5.2903 17.176 4.30825C18.1518 3.3263 19.4747 2.77524 20.8533 2.77524C22.232 2.77524 23.5549 3.3263 24.5307 4.30825C25.5067 5.2903 26.0555 6.62293 26.0555 8.01313V8.52665H26.569H35.4998C35.6468 8.52665 35.7884 8.58538 35.8934 8.69097C35.9984 8.79666 36.058 8.94068 36.058 9.09152C36.058 9.24237 35.9984 9.38639 35.8934 9.49208C35.7884 9.59766 35.6468 9.6564 35.4998 9.6564H33.6279H33.1552L33.1162 10.1275L32.4471 18.2045C30.1868 17.4014 27.7233 17.345 25.4193 18.0547C22.89 18.8337 20.7158 20.4857 19.2791 22.7187C17.8425 24.9517 17.2352 27.6227 17.5639 30.2615C17.8413 32.4891 18.7707 34.5737 20.2209 36.2567H15.8693C14.4758 36.2566 13.1327 35.7296 12.1064 34.7793C11.0801 33.8289 10.4455 32.5245 10.3295 31.1245L8.59054 10.1275L8.55152 9.6564H8.07877H6.20689C6.05988 9.6564 5.91825 9.59766 5.81333 9.49208C5.70829 9.38639 5.64871 9.24237 5.64871 9.09152C5.64871 8.94068 5.70829 8.79666 5.81333 8.69097C5.91825 8.58538 6.05988 8.52665 6.20689 8.52665H15.1377ZM28.7124 27.1168L25.2958 23.6775L25.2957 23.6775C25.0655 23.4458 24.7526 23.3151 24.4257 23.3151C24.0987 23.3151 23.7858 23.4458 23.5556 23.6775C23.3255 23.909 23.1968 24.2224 23.1968 24.5485C23.1968 24.8745 23.3255 25.1879 23.5556 25.4194L23.5556 25.4195L26.9781 28.862L23.5556 32.3045L23.5556 32.3046C23.3255 32.5361 23.1968 32.8495 23.1968 33.1756C23.1968 33.5017 23.3255 33.815 23.5556 34.0466C23.7858 34.2782 24.0987 34.4089 24.4257 34.4089C24.7526 34.4089 25.0655 34.2782 25.2957 34.0466L25.2958 34.0465L28.7124 30.6072L32.129 34.0465L32.1291 34.0466C32.3593 34.2782 32.6722 34.4089 32.9992 34.4089C33.3261 34.4089 33.6391 34.2782 33.8693 34.0466C34.0994 33.815 34.2281 33.5017 34.2281 33.1756C34.2281 32.8495 34.0994 32.5361 33.8693 32.3046L33.8692 32.3045L30.4468 28.862L33.8692 25.4195L33.8693 25.4194C34.0994 25.1879 34.2281 24.8745 34.2281 24.5485C34.2281 24.2224 34.0994 23.909 33.8693 23.6775C33.6391 23.4458 33.3261 23.3151 32.9992 23.3151C32.6722 23.3151 32.3593 23.4458 32.1291 23.6775L32.129 23.6775L28.7124 27.1168ZM37.4869 28.862C37.4869 31.2056 36.5617 33.4525 34.9158 35.1087C33.27 36.7648 31.0385 37.6945 28.7124 37.6945C26.3863 37.6945 24.1548 36.7648 22.5091 35.1087C20.8632 33.4525 19.9379 31.2056 19.9379 28.862C19.9379 26.5185 20.8632 24.2715 22.5091 22.6153C24.1548 20.9593 26.3863 20.0295 28.7124 20.0295C31.0385 20.0295 33.27 20.9593 34.9158 22.6153C36.5617 24.2715 37.4869 26.5185 37.4869 28.862Z" stroke="black" stroke-width="1.02704"/>
</svg>
