<svg width="47" height="47" viewBox="0 0 47 47" fill="none" xmlns="http://www.w3.org/2000/svg">
<circle cx="23.8401" cy="23.1853" r="22.6594" fill="white" stroke="#29604E"/>
<path d="M33.337 15.9746H29.7132L28.2957 14.4314C27.8727 13.9627 27.2554 13.6884 26.6153 13.6884H21.7683C21.1282 13.6884 20.5109 13.9627 20.0765 14.4314L18.6704 15.9746H15.0467C13.7892 15.9746 12.7604 17.0035 12.7604 18.2609V31.9786C12.7604 33.2361 13.7892 34.2649 15.0467 34.2649H33.337C34.5944 34.2649 35.6232 33.2361 35.6232 31.9786V18.2609C35.6232 17.0035 34.5944 15.9746 33.337 15.9746ZM24.1918 30.8355C21.0367 30.8355 18.4761 28.2749 18.4761 25.1198C18.4761 21.9647 21.0367 19.4041 24.1918 19.4041C27.3469 19.4041 29.9075 21.9647 29.9075 25.1198C29.9075 28.2749 27.3469 30.8355 24.1918 30.8355ZM24.1918 20.5472L22.7629 23.6909L19.6192 25.1198L22.7629 26.5487L24.1918 29.6924L25.6207 26.5487L28.7644 25.1198L25.6207 23.6909L24.1918 20.5472Z" fill="#29604E"/>
</svg>
