<svg width="33" height="32" viewBox="0 0 33 32" fill="none" xmlns="http://www.w3.org/2000/svg">
<path opacity="0.2" d="M25.4165 11L16.4165 20H12.4165V16L21.4165 7L25.4165 11Z" fill="#333333"/>
<path d="M29.124 7.29255L25.124 3.29255C25.0311 3.19958 24.9208 3.12582 24.7994 3.07549C24.678 3.02517 24.5479 2.99927 24.4165 2.99927C24.2851 2.99927 24.155 3.02517 24.0336 3.07549C23.9122 3.12582 23.8019 3.19958 23.709 3.29255L11.709 15.2926C11.6162 15.3855 11.5426 15.4958 11.4924 15.6172C11.4422 15.7386 11.4164 15.8687 11.4165 16.0001V20.0001C11.4165 20.2653 11.5219 20.5196 11.7094 20.7072C11.8969 20.8947 12.1513 21.0001 12.4165 21.0001H16.4165C16.5479 21.0002 16.678 20.9744 16.7994 20.9242C16.9207 20.874 17.0311 20.8004 17.124 20.7076L29.124 8.70755C29.217 8.61468 29.2907 8.50439 29.3411 8.38299C29.3914 8.2616 29.4173 8.13147 29.4173 8.00005C29.4173 7.86864 29.3914 7.73851 29.3411 7.61711C29.2907 7.49572 29.217 7.38543 29.124 7.29255ZM16.0028 19.0001H13.4165V16.4138L21.4165 8.4138L24.0028 11.0001L16.0028 19.0001ZM25.4165 9.5863L22.8303 7.00005L24.4165 5.4138L27.0028 8.00005L25.4165 9.5863ZM28.4165 15.0001V26.0001C28.4165 26.5305 28.2058 27.0392 27.8307 27.4143C27.4556 27.7893 26.9469 28.0001 26.4165 28.0001H6.4165C5.88607 28.0001 5.37736 27.7893 5.00229 27.4143C4.62722 27.0392 4.4165 26.5305 4.4165 26.0001V6.00005C4.4165 5.46962 4.62722 4.96091 5.00229 4.58584C5.37736 4.21077 5.88607 4.00005 6.4165 4.00005H17.4165C17.6817 4.00005 17.9361 4.10541 18.1236 4.29295C18.3111 4.48048 18.4165 4.73484 18.4165 5.00005C18.4165 5.26527 18.3111 5.51962 18.1236 5.70716C17.9361 5.8947 17.6817 6.00005 17.4165 6.00005H6.4165V26.0001H26.4165V15.0001C26.4165 14.7348 26.5219 14.4805 26.7094 14.2929C26.8969 14.1054 27.1513 14.0001 27.4165 14.0001C27.6817 14.0001 27.9361 14.1054 28.1236 14.2929C28.3111 14.4805 28.4165 14.7348 28.4165 15.0001Z" fill="#333333"/>
</svg>
