<svg width="50" height="50" viewBox="0 0 50 50" fill="none" xmlns="http://www.w3.org/2000/svg">
<ellipse opacity="0.2" cx="24.96" cy="24.9458" rx="24.96" ry="24.9458" fill="#29604E"/>
<path d="M33.2859 33.7285V31.7285C33.2859 30.6676 32.8645 29.6502 32.1143 28.9001C31.3642 28.1499 30.3468 27.7285 29.2859 27.7285H21.2859C20.225 27.7285 19.2076 28.1499 18.4575 28.9001C17.7073 29.6502 17.2859 30.6676 17.2859 31.7285V33.7285" stroke="black" stroke-width="2" stroke-linecap="round" stroke-linejoin="round"/>
<path d="M25.2859 23.7285C27.495 23.7285 29.2859 21.9377 29.2859 19.7285C29.2859 17.5194 27.495 15.7285 25.2859 15.7285C23.0767 15.7285 21.2859 17.5194 21.2859 19.7285C21.2859 21.9377 23.0767 23.7285 25.2859 23.7285Z" stroke="black" stroke-width="2" stroke-linecap="round" stroke-linejoin="round"/>
</svg>
