<svg width="25" height="25" viewBox="0 0 25 25" fill="none" xmlns="http://www.w3.org/2000/svg">
<path d="M22.3619 10.4572H21.5445V10.4151H12.4111V14.4743H18.1464C17.3097 16.8373 15.0613 18.5336 12.4111 18.5336C9.04856 18.5336 6.32226 15.8073 6.32226 12.4447C6.32226 9.0821 9.04856 6.3558 12.4111 6.3558C13.9633 6.3558 15.3754 6.94135 16.4506 7.89781L19.321 5.02741C17.5086 3.33825 15.0842 2.29654 12.4111 2.29654C6.80683 2.29654 2.263 6.84037 2.263 12.4447C2.263 18.049 6.80683 22.5928 12.4111 22.5928C18.0155 22.5928 22.5593 18.049 22.5593 12.4447C22.5593 11.7643 22.4893 11.1001 22.3619 10.4572Z" fill="#FFC107"/>
<path d="M3.43304 7.72123L6.76722 10.1664C7.66939 7.93282 9.85429 6.3558 12.4111 6.3558C13.9633 6.3558 15.3754 6.94135 16.4506 7.89781L19.321 5.02741C17.5085 3.33825 15.0841 2.29654 12.4111 2.29654C8.51321 2.29654 5.13286 4.49716 3.43304 7.72123Z" fill="#FF3D00"/>
<path d="M12.4111 22.5929C15.0324 22.5929 17.4141 21.5898 19.2149 19.9585L16.0741 17.3007C15.021 18.1016 13.7341 18.5347 12.4111 18.5337C9.77156 18.5337 7.53034 16.8506 6.68602 14.5018L3.37671 17.0516C5.05623 20.338 8.46702 22.5929 12.4111 22.5929Z" fill="#4CAF50"/>
<path d="M22.3619 10.4567H21.5445V10.4146H12.4111V14.4738H18.1464C17.7461 15.5985 17.0252 16.5812 16.0726 17.3006L16.0741 17.2996L19.215 19.9574C18.9927 20.1593 22.5593 17.5183 22.5593 12.4442C22.5593 11.7638 22.4893 11.0996 22.3619 10.4567Z" fill="#1976D2"/>
</svg>
