<svg width="61" height="54" viewBox="0 0 61 54" fill="none" xmlns="http://www.w3.org/2000/svg">
<g clip-path="url(#clip0_116_1394)">
<mask id="mask0_116_1394" style="mask-type:luminance" maskUnits="userSpaceOnUse" x="2" y="4" width="58" height="50">
<path d="M2.93826 4.7998H59.1926V53.0998H2.93826V4.7998Z" fill="white"/>
</mask>
<g mask="url(#mask0_116_1394)">
<path fill-rule="evenodd" clip-rule="evenodd" d="M42.1588 30.2729C40.2478 30.2729 38.6993 28.7331 38.6993 26.8335C38.6993 24.9327 40.2478 23.3929 42.1588 23.3929C44.0686 23.3929 45.6183 24.9327 45.6183 26.8335C45.6183 28.7331 44.0686 30.2729 42.1588 30.2729ZM30.6271 30.2729C28.7174 30.2729 27.1677 28.7331 27.1677 26.8335C27.1677 24.9327 28.7174 23.3929 30.6271 23.3929C32.5381 23.3929 34.0866 24.9327 34.0866 26.8335C34.0866 28.7331 32.5381 30.2729 30.6271 30.2729ZM19.0967 30.2729C17.1857 30.2729 15.6372 28.7331 15.6372 26.8335C15.6372 24.9327 17.1857 23.3929 19.0967 23.3929C21.0065 23.3929 22.5562 24.9327 22.5562 26.8335C22.5562 28.7331 21.0065 30.2729 19.0967 30.2729ZM31.5332 5.03661C16.0243 4.7331 3.25834 14.237 3.02065 26.264C2.9371 30.4452 4.38091 34.3815 6.94964 37.7495H6.94846C11.3658 43.3933 6.54486 53.0952 6.54486 53.0952L20.7794 46.9991C23.8458 47.9624 27.1782 48.5237 30.6707 48.5929C46.1796 48.8964 58.9455 39.3925 59.1832 27.3655C59.4221 15.3374 47.0433 5.3413 31.5332 5.03661Z" fill="#29604E"/>
</g>
</g>
<defs>
<clipPath id="clip0_116_1394">
<rect width="61" height="54" fill="white"/>
</clipPath>
</defs>
</svg>
