<svg width="27" height="28" viewBox="0 0 27 28" fill="none" xmlns="http://www.w3.org/2000/svg">
<path fill-rule="evenodd" clip-rule="evenodd" d="M20.7437 10.5435C20.7437 11.8999 21.1022 12.6983 21.8911 13.6195C22.489 14.2983 22.68 15.1706 22.68 16.1147C22.68 17.06 22.3688 17.9551 21.7473 18.6828C20.9347 19.5552 19.7873 20.1121 18.6163 20.2089C16.9182 20.3535 15.2212 20.4754 13.5006 20.4754C11.7789 20.4754 10.0819 20.4025 8.38489 20.2089C7.21277 20.1121 6.06533 19.5552 5.25279 18.6828C4.63024 17.9551 4.32003 17.06 4.32003 16.1147C4.32003 15.1706 4.51109 14.2983 5.10896 13.6195C5.9215 12.6983 6.25639 11.8999 6.25639 10.5435V10.0823C6.25639 8.26585 6.71043 7.07808 7.64319 5.91641C9.02998 4.21959 11.2529 3.20258 13.4523 3.20258H13.5478C15.7944 3.20258 18.0892 4.26853 19.4524 6.03714C20.3369 7.17597 20.7437 8.3148 20.7437 10.0823V10.5435ZM11.2998 21.8093C11.8397 21.694 15.1295 21.694 15.6695 21.8093C16.131 21.9159 16.6301 22.1639 16.6301 22.7077C16.6033 23.2266 16.2995 23.6845 15.8788 23.9749L15.8798 23.976C15.3356 24.4002 14.697 24.67 14.0293 24.7668C13.6601 24.8135 13.2973 24.8157 12.9409 24.7668C12.2722 24.67 11.6336 24.4002 11.0894 23.976L11.0905 23.9749C10.6697 23.6845 10.3659 23.2266 10.3391 22.7077C10.3391 22.1639 10.8382 21.9159 11.2998 21.8093Z" fill="white"/>
<path d="M21.8911 13.6196C21.1021 12.6983 20.7436 11.8999 20.7436 10.5436V10.0824C20.7436 8.31484 20.3368 7.17602 19.4524 6.03719C18.0892 4.26858 15.7943 3.20263 13.5477 3.20263H13.4522C11.2529 3.20263 9.02993 4.21963 7.64314 5.91645C6.71038 7.07812 6.25635 8.2659 6.25635 10.0824V10.5436C6.25635 11.8999 5.92145 12.6983 5.10891 13.6196C4.51105 14.2983 4.31999 15.1707 4.31999 16.1148C4.31999 17.06 4.63019 17.9552 5.25275 18.6829C6.06529 19.5552 7.21272 20.1121 8.38484 20.2089C10.0818 20.4025 11.7788 20.4754 13.5005 20.4754C15.2211 20.4754 16.9181 20.3536 18.6162 20.2089C19.7873 20.1121 20.9347 19.5552 21.7472 18.6829C22.3687 17.9552 22.68 17.06 22.68 16.1148C22.68 15.1707 22.4889 14.2983 21.8911 13.6196Z" fill="white"/>
<path opacity="0.4" d="M15.6694 21.8093C15.1295 21.6941 11.8396 21.6941 11.2997 21.8093C10.8382 21.9159 10.339 22.1639 10.339 22.7078C10.3659 23.2266 10.6696 23.6846 11.0904 23.975L11.0893 23.9761C11.6335 24.4003 12.2722 24.67 12.9409 24.7668C13.2973 24.8158 13.6601 24.8136 14.0293 24.7668C14.6969 24.67 15.3356 24.4003 15.8798 23.9761L15.8787 23.975C16.2995 23.6846 16.6032 23.2266 16.6301 22.7078C16.6301 22.1639 16.131 21.9159 15.6694 21.8093Z" fill="white"/>
</svg>
