<svg width="42" height="41" viewBox="0 0 42 41" fill="none" xmlns="http://www.w3.org/2000/svg">
<path d="M30.5727 15.9323V16.3174H30.9579H33.5071V25.518C33.5071 32.25 28.1434 37.714 21.5678 37.714C14.9922 37.714 9.62849 32.25 9.62849 25.518V16.3174H12.1777H12.5629V15.9323V11.7385C12.5629 9.29585 13.5135 6.95479 15.2032 5.22993C16.8925 3.50534 19.1821 2.53797 21.5678 2.53797C23.9535 2.53797 26.2431 3.50534 27.9325 5.22993C29.6221 6.95479 30.5727 9.29585 30.5727 11.7385V15.9323ZM28.6104 16.3174H28.9955V15.9323V11.7385C28.9955 9.7322 28.2148 7.80649 26.8228 6.38543C25.4305 4.9641 23.5403 4.16412 21.5678 4.16412C19.5953 4.16412 17.7052 4.9641 16.3128 6.38543C14.9208 7.80649 14.1401 9.7322 14.1401 11.7385V15.9323V16.3174H14.5253H28.6104ZM11.5909 17.9435H11.2057V18.3287V25.518C11.2057 31.339 15.8464 36.0879 21.5678 36.0879C27.2892 36.0879 31.9299 31.339 31.9299 25.518V18.3287V17.9435H31.5448H11.5909Z" stroke="black" stroke-width="0.770279"/>
</svg>
