<svg width="50" height="50" viewBox="0 0 50 50" fill="none" xmlns="http://www.w3.org/2000/svg">
<ellipse opacity="0.2" cx="24.96" cy="24.9458" rx="24.96" ry="24.9458" fill="#29604E"/>
<path d="M32.02 24.2026H18.02C16.9154 24.2026 16.02 25.0981 16.02 26.2026V33.2026C16.02 34.3072 16.9154 35.2026 18.02 35.2026H32.02C33.1246 35.2026 34.02 34.3072 34.02 33.2026V26.2026C34.02 25.0981 33.1246 24.2026 32.02 24.2026Z" stroke="black" stroke-width="2" stroke-linecap="round" stroke-linejoin="round"/>
<path d="M20.02 24.2026V20.2026C20.02 18.8766 20.5468 17.6048 21.4845 16.6671C22.4222 15.7294 23.6939 15.2026 25.02 15.2026C26.3461 15.2026 27.6179 15.7294 28.5556 16.6671C29.4932 17.6048 30.02 18.8766 30.02 20.2026V24.2026" stroke="black" stroke-width="2" stroke-linecap="round" stroke-linejoin="round"/>
</svg>
