<svg width="37" height="38" viewBox="0 0 37 38" fill="none" xmlns="http://www.w3.org/2000/svg">
<path d="M18.3192 12.7802C19.1075 12.7802 19.7464 12.1412 19.7464 11.353C19.7464 10.5648 19.1075 9.92578 18.3192 9.92578C17.531 9.92578 16.892 10.5648 16.892 11.353C16.892 12.1412 17.531 12.7802 18.3192 12.7802Z" fill="black"/>
<path d="M21.408 26.1855H19.3691V15.0737H16.3108C16.0405 15.0737 15.7812 15.1811 15.59 15.3723C15.3988 15.5635 15.2914 15.8228 15.2914 16.0932C15.2914 16.3635 15.3988 16.6228 15.59 16.814C15.7812 17.0052 16.0405 17.1126 16.3108 17.1126H17.3303V26.1855H15.2914C15.021 26.1855 14.7617 26.2929 14.5706 26.4841C14.3794 26.6753 14.272 26.9346 14.272 27.205C14.272 27.4753 14.3794 27.7346 14.5706 27.9258C14.7617 28.117 15.021 28.2244 15.2914 28.2244H21.408C21.6784 28.2244 21.9377 28.117 22.1288 27.9258C22.32 27.7346 22.4274 27.4753 22.4274 27.205C22.4274 26.9346 22.32 26.6753 22.1288 26.4841C21.9377 26.2929 21.6784 26.1855 21.408 26.1855Z" fill="black"/>
<path d="M18.3498 35.3606C15.1238 35.3606 11.9702 34.4039 9.28793 32.6117C6.60562 30.8194 4.51501 28.272 3.28048 25.2916C2.04595 22.3112 1.72294 19.0316 2.3523 15.8676C2.98166 12.7036 4.53512 9.79725 6.81624 7.51613C9.09736 5.23501 12.0037 3.68155 15.1677 3.05219C18.3317 2.42283 21.6113 2.74584 24.5917 3.98037C27.5721 5.2149 30.1195 7.30551 31.9118 9.98782C33.7041 12.6701 34.6607 15.8237 34.6607 19.0497C34.6607 23.3756 32.9422 27.5243 29.8833 30.5832C26.8244 33.6421 22.6757 35.3606 18.3498 35.3606ZM18.3498 4.77764C15.527 4.77764 12.7677 5.61468 10.4207 7.18291C8.07364 8.75114 6.24436 10.9801 5.16414 13.588C4.08393 16.1959 3.80129 19.0655 4.35198 21.834C4.90267 24.6025 6.26195 27.1455 8.25793 29.1415C10.2539 31.1375 12.7969 32.4968 15.5654 33.0475C18.3339 33.5982 21.2036 33.3155 23.8114 32.2353C26.4193 31.1551 28.6483 29.3258 30.2165 26.9788C31.7848 24.6318 32.6218 21.8724 32.6218 19.0497C32.6218 15.2645 31.1182 11.6343 28.4416 8.95782C25.7651 6.28129 22.135 4.77764 18.3498 4.77764Z" fill="black"/>
</svg>
