<svg width="37" height="37" viewBox="0 0 37 37" fill="none" xmlns="http://www.w3.org/2000/svg">
<path d="M18.3498 3.05811C9.90434 3.05811 3.05835 9.90409 3.05835 18.3496C3.05835 26.795 9.90434 33.641 18.3498 33.641C26.7953 33.641 33.6413 26.795 33.6413 18.3496C33.6413 9.90409 26.7953 3.05811 18.3498 3.05811Z" stroke="black" stroke-width="2.20197" stroke-linecap="round" stroke-linejoin="round"/>
<path d="M6.53094 28.0536C6.53094 28.0536 9.93941 23.7017 18.3497 23.7017C26.76 23.7017 30.17 28.0536 30.17 28.0536" stroke="black" stroke-width="2.20197" stroke-linecap="round" stroke-linejoin="round"/>
<path d="M18.3497 18.3497C19.5664 18.3497 20.7332 17.8664 21.5935 17.0061C22.4538 16.1457 22.9371 14.9789 22.9371 13.7622C22.9371 12.5456 22.4538 11.3787 21.5935 10.5184C20.7332 9.65812 19.5664 9.1748 18.3497 9.1748C17.133 9.1748 15.9662 9.65812 15.1059 10.5184C14.2456 11.3787 13.7623 12.5456 13.7623 13.7622C13.7623 14.9789 14.2456 16.1457 15.1059 17.0061C15.9662 17.8664 17.133 18.3497 18.3497 18.3497V18.3497Z" stroke="black" stroke-width="2.20197" stroke-linecap="round" stroke-linejoin="round"/>
</svg>
