<svg width="50" height="50" viewBox="0 0 50 50" fill="none" xmlns="http://www.w3.org/2000/svg">
<ellipse opacity="0.2" cx="24.96" cy="24.9458" rx="24.96" ry="24.9458" fill="#FF5D5D"/>
<mask id="mask0_1_36" style="mask-type:alpha" maskUnits="userSpaceOnUse" x="13" y="13" width="24" height="24">
<rect x="13" y="13" width="24" height="24" fill="#D9D9D9"/>
</mask>
<g mask="url(#mask0_1_36)">
</g>
<path d="M20.625 19.4L23.425 15.775C23.625 15.5083 23.8625 15.3125 24.1375 15.1875C24.4125 15.0625 24.7 15 25 15C25.3 15 25.5875 15.0625 25.8625 15.1875C26.1375 15.3125 26.375 15.5083 26.575 15.775L29.375 19.4L33.625 20.825C34.0583 20.9583 34.4 21.2042 34.65 21.5625C34.9 21.9208 35.025 22.3167 35.025 22.75C35.025 22.95 34.9958 23.15 34.9375 23.35C34.8792 23.55 34.7833 23.7417 34.65 23.925L31.9 27.825L32 31.925C32.0167 32.5083 31.825 33 31.425 33.4C31.025 33.8 30.5583 34 30.025 34C29.9917 34 29.8083 33.975 29.475 33.925L25 32.675L20.525 33.925C20.4417 33.9583 20.35 33.9792 20.25 33.9875C20.15 33.9958 20.0583 34 19.975 34C19.4417 34 18.975 33.8 18.575 33.4C18.175 33 17.9833 32.5083 18 31.925L18.1 27.8L15.375 23.925C15.2417 23.7417 15.1458 23.55 15.0875 23.35C15.0292 23.15 15 22.95 15 22.75C15 22.3333 15.1208 21.9458 15.3625 21.5875C15.6042 21.2292 15.9417 20.975 16.375 20.825L20.625 19.4ZM21.85 21.125L17 22.725L20.1 27.2L20 31.975L25 30.6L30 32L29.9 27.2L33 22.775L28.15 21.125L25 17L21.85 21.125Z" fill="black"/>
</svg>
