<svg width="50" height="51" viewBox="0 0 50 51" fill="none" xmlns="http://www.w3.org/2000/svg">
<ellipse opacity="0.2" cx="24.96" cy="25.0986" rx="24.96" ry="24.9458" fill="#29604E"/>
<g clip-path="url(#clip0_91_8086)">
<path d="M25.02 28.2026C26.6769 28.2026 28.02 26.8595 28.02 25.2026C28.02 23.5458 26.6769 22.2026 25.02 22.2026C23.3632 22.2026 22.02 23.5458 22.02 25.2026C22.02 26.8595 23.3632 28.2026 25.02 28.2026Z" stroke="black" stroke-width="2" stroke-linecap="round" stroke-linejoin="round"/>
<path d="M32.42 28.2026C32.2869 28.5043 32.2472 28.8388 32.306 29.1632C32.3648 29.4876 32.5195 29.787 32.75 30.0226L32.81 30.0826C32.996 30.2684 33.1435 30.489 33.2441 30.7318C33.3448 30.9746 33.3966 31.2348 33.3966 31.4976C33.3966 31.7605 33.3448 32.0207 33.2441 32.2635C33.1435 32.5063 32.996 32.7269 32.81 32.9126C32.6243 33.0986 32.4037 33.2461 32.1609 33.3468C31.9181 33.4474 31.6579 33.4992 31.395 33.4992C31.1322 33.4992 30.8719 33.4474 30.6291 33.3468C30.3863 33.2461 30.1658 33.0986 29.98 32.9126L29.92 32.8526C29.6843 32.6221 29.385 32.4675 29.0606 32.4086C28.7362 32.3498 28.4016 32.3895 28.1 32.5226C27.8043 32.6494 27.552 32.8599 27.3743 33.1282C27.1967 33.3965 27.1013 33.7109 27.1 34.0326V34.2026C27.1 34.7331 26.8893 35.2418 26.5142 35.6168C26.1392 35.9919 25.6305 36.2026 25.1 36.2026C24.5696 36.2026 24.0609 35.9919 23.6858 35.6168C23.3107 35.2418 23.1 34.7331 23.1 34.2026V34.1126C23.0923 33.7816 22.9851 33.4606 22.7925 33.1913C22.5999 32.922 22.3308 32.7169 22.02 32.6026C21.7184 32.4695 21.3838 32.4298 21.0594 32.4886C20.735 32.5475 20.4357 32.7021 20.2 32.9326L20.14 32.9926C19.9543 33.1786 19.7337 33.3261 19.4909 33.4268C19.2481 33.5274 18.9879 33.5792 18.725 33.5792C18.4622 33.5792 18.2019 33.5274 17.9591 33.4268C17.7163 33.3261 17.4958 33.1786 17.31 32.9926C17.1241 32.8069 16.9765 32.5863 16.8759 32.3435C16.7753 32.1007 16.7234 31.8405 16.7234 31.5776C16.7234 31.3148 16.7753 31.0546 16.8759 30.8118C16.9765 30.569 17.1241 30.3484 17.31 30.1626L17.37 30.1026C17.6006 29.867 17.7552 29.5676 17.814 29.2432C17.8728 28.9188 17.8331 28.5843 17.7 28.2826C17.5733 27.9869 17.3628 27.7346 17.0945 27.5569C16.8262 27.3793 16.5118 27.2839 16.19 27.2826H16.02C15.4896 27.2826 14.9809 27.0719 14.6058 26.6968C14.2307 26.3218 14.02 25.8131 14.02 25.2826C14.02 24.7522 14.2307 24.2435 14.6058 23.8684C14.9809 23.4934 15.4896 23.2826 16.02 23.2826H16.11C16.441 23.2749 16.762 23.1678 17.0313 22.9751C17.3006 22.7825 17.5057 22.5134 17.62 22.2026C17.7531 21.901 17.7928 21.5664 17.734 21.242C17.6752 20.9177 17.5206 20.6183 17.29 20.3826L17.23 20.3226C17.0441 20.1369 16.8965 19.9163 16.7959 19.6735C16.6953 19.4307 16.6434 19.1705 16.6434 18.9076C16.6434 18.6448 16.6953 18.3846 16.7959 18.1418C16.8965 17.899 17.0441 17.6784 17.23 17.4926C17.4158 17.3067 17.6363 17.1592 17.8791 17.0585C18.1219 16.9579 18.3822 16.9061 18.645 16.9061C18.9079 16.9061 19.1681 16.9579 19.4109 17.0585C19.6537 17.1592 19.8743 17.3067 20.06 17.4926L20.12 17.5526C20.3557 17.7832 20.655 17.9378 20.9794 17.9966C21.3038 18.0555 21.6384 18.0158 21.94 17.8826H22.02C22.3158 17.7559 22.568 17.5454 22.7457 17.2771C22.9234 17.0088 23.0187 16.6944 23.02 16.3726V16.2026C23.02 15.6722 23.2307 15.1635 23.6058 14.7884C23.9809 14.4134 24.4896 14.2026 25.02 14.2026C25.5505 14.2026 26.0592 14.4134 26.4342 14.7884C26.8093 15.1635 27.02 15.6722 27.02 16.2026V16.2926C27.0213 16.6144 27.1167 16.9288 27.2943 17.1971C27.472 17.4654 27.7243 17.6759 28.02 17.8026C28.3216 17.9358 28.6562 17.9755 28.9806 17.9166C29.305 17.8578 29.6043 17.7032 29.84 17.4726L29.9 17.4126C30.0858 17.2267 30.3063 17.0792 30.5491 16.9785C30.7919 16.8779 31.0522 16.8261 31.315 16.8261C31.5779 16.8261 31.8381 16.8779 32.0809 16.9785C32.3237 17.0792 32.5443 17.2267 32.73 17.4126C32.916 17.5984 33.0635 17.819 33.1641 18.0618C33.2648 18.3046 33.3166 18.5648 33.3166 18.8276C33.3166 19.0905 33.2648 19.3507 33.1641 19.5935C33.0635 19.8363 32.916 20.0569 32.73 20.2426L32.67 20.3026C32.4395 20.5383 32.2848 20.8377 32.226 21.162C32.1672 21.4864 32.2069 21.821 32.34 22.1226V22.2026C32.4668 22.4984 32.6773 22.7507 32.9456 22.9283C33.2138 23.106 33.5282 23.2014 33.85 23.2026H34.02C34.5505 23.2026 35.0592 23.4134 35.4342 23.7884C35.8093 24.1635 36.02 24.6722 36.02 25.2026C36.02 25.7331 35.8093 26.2418 35.4342 26.6168C35.0592 26.9919 34.5505 27.2026 34.02 27.2026H33.93C33.6082 27.2039 33.2938 27.2993 33.0256 27.4769C32.7573 27.6546 32.5468 27.9069 32.42 28.2026Z" stroke="black" stroke-width="2" stroke-linecap="round" stroke-linejoin="round"/>
</g>
<defs>
<clipPath id="clip0_91_8086">
<rect width="24" height="24" fill="white" transform="translate(13.02 13.2026)"/>
</clipPath>
</defs>
</svg>
