<svg width="37" height="38" viewBox="0 0 37 38" fill="none" xmlns="http://www.w3.org/2000/svg">
<g clip-path="url(#clip0_707_1570)">
<path d="M12.233 21.8071H24.4661" stroke="black" stroke-width="2.20197" stroke-linecap="round" stroke-linejoin="round"/>
<path d="M12.233 15.6904H15.2913" stroke="black" stroke-width="2.20197" stroke-linecap="round" stroke-linejoin="round"/>
<path d="M12.233 27.9238H18.3496" stroke="black" stroke-width="2.20197" stroke-linecap="round" stroke-linejoin="round"/>
<path d="M15.2914 4.98652V8.04481M15.2914 4.98652H9.17481C8.3637 4.98652 7.58581 5.30873 7.01227 5.88227C6.43873 6.45581 6.11652 7.2337 6.11652 8.04481V30.982C6.11652 31.7931 6.43873 32.571 7.01227 33.1445C7.58581 33.7181 8.3637 34.0403 9.17481 34.0403H27.5246C28.3357 34.0403 29.1136 33.7181 29.6871 33.1445C30.2606 32.571 30.5828 31.7931 30.5828 30.982V8.04481C30.5828 7.2337 30.2606 6.45581 29.6871 5.88227C29.1136 5.30873 28.3357 4.98652 27.5246 4.98652H22.1725H15.2914ZM15.2914 4.98652V1.92822V4.98652Z" stroke="black" stroke-width="2.20197" stroke-linecap="round" stroke-linejoin="round"/>
</g>
<defs>
<clipPath id="clip0_707_1570">
<rect width="36.6995" height="36.6995" fill="white" transform="translate(0 0.398926)"/>
</clipPath>
</defs>
</svg>
