<svg width="50" height="50" viewBox="0 0 50 50" fill="none" xmlns="http://www.w3.org/2000/svg">
<ellipse opacity="0.2" cx="24.96" cy="24.9458" rx="24.96" ry="24.9458" fill="#29604E"/>
<path d="M28.3866 14.4554H20.3866C19.8562 14.4554 19.3475 14.6662 18.9724 15.0412C18.5973 15.4163 18.3866 15.925 18.3866 16.4554V32.4554C18.3866 32.9859 18.5973 33.4946 18.9724 33.8697C19.3475 34.2447 19.8562 34.4554 20.3866 34.4554H32.3866C32.917 34.4554 33.4257 34.2447 33.8008 33.8697C34.1759 33.4946 34.3866 32.9859 34.3866 32.4554V20.4554L28.3866 14.4554Z" stroke="black" stroke-width="2" stroke-linecap="round" stroke-linejoin="round"/>
<path d="M28.3866 14.4554V20.4554H34.3866" stroke="black" stroke-width="2" stroke-linecap="round" stroke-linejoin="round"/>
<path d="M30.3866 25.4554H22.3866" stroke="black" stroke-width="2" stroke-linecap="round" stroke-linejoin="round"/>
<path d="M30.3866 29.4554H22.3866" stroke="black" stroke-width="2" stroke-linecap="round" stroke-linejoin="round"/>
<path d="M24.3866 21.4554H23.3866H22.3866" stroke="black" stroke-width="2" stroke-linecap="round" stroke-linejoin="round"/>
</svg>
